<?xml version="1.0" encoding="utf-8"?>
<!-- Generator: Adobe Illustrator 23.0.1, SVG Export Plug-In . SVG Version: 6.00 Build 0)  -->
<svg version="1.1" id="Слой_1" xmlns="http://www.w3.org/2000/svg" xmlns:xlink="http://www.w3.org/1999/xlink" x="0px" y="0px"
	 viewBox="0 0 37 26.3" style="enable-background:new 0 0 37 26.3;" xml:space="preserve">
<style type="text/css">
	.st0{fill-rule:evenodd;clip-rule:evenodd;fill:#E5E5E5;}
</style>
<path class="st0" d="M27.3,26.3c0,0-1.1-1.3-2.1-2.5c4.1-1.2,5.7-3.7,5.7-3.7c-1.3,0.8-2.5,1.4-3.6,1.8c-1.6,0.7-3.1,1.1-4.6,1.3
	c-3,0.6-5.8,0.4-8.2,0c-1.8-0.3-3.4-0.8-4.7-1.3c-0.7-0.3-1.5-0.6-2.3-1.1c-0.1-0.1-0.2-0.1-0.3-0.2c-0.1,0-0.1-0.1-0.1-0.1
	C6.6,20.2,6.2,20,6.2,20s1.5,2.5,5.5,3.7c-1,1.2-2.1,2.6-2.1,2.6c-7-0.2-9.7-4.8-9.7-4.8C0,11.5,4.6,3.3,4.6,3.3
	C9.1-0.1,13.5,0,13.5,0l0.3,0.4C8.1,2,5.4,4.5,5.4,4.5s0.7-0.4,1.9-0.9c3.4-1.5,6.1-1.9,7.2-2c0.2,0,0.3-0.1,0.5-0.1
	c1.9-0.3,4.1-0.3,6.4-0.1c3,0.3,6.2,1.2,9.5,3c0,0-2.5-2.3-7.9-4L23.5,0c0,0,4.3-0.1,8.9,3.3c0,0,4.6,8.2,4.6,18.2
	C37,21.5,34.3,26.1,27.3,26.3z M13.5,12.2c-1.8,0-3.2,1.6-3.2,3.6s1.4,3.6,3.2,3.6c1.8,0,3.2-1.6,3.2-3.6
	C16.7,13.9,15.3,12.2,13.5,12.2z M24.9,12.2c-1.8,0-3.2,1.6-3.2,3.6s1.4,3.6,3.2,3.6c1.8,0,3.2-1.6,3.2-3.6S26.7,12.2,24.9,12.2z"/>
</svg>
