<?xml version="1.0" encoding="utf-8"?>
<!-- Generator: Adobe Illustrator 23.0.1, SVG Export Plug-In . SVG Version: 6.00 Build 0)  -->
<svg version="1.1" xmlns="http://www.w3.org/2000/svg" xmlns:xlink="http://www.w3.org/1999/xlink" x="0px" y="0px"
	 viewBox="0 0 31.7 34.6" style="enable-background:new 0 0 31.7 34.6;" xml:space="preserve">
<style type="text/css">
	.st0{display:none;}
	.st1{display:inline;fill-rule:evenodd;clip-rule:evenodd;fill:#E5E5E5;}
	.st2{fill:#E5E5E5;}
</style>
<g id="Слой_3">
</g>
<g id="Слой_2" class="st0">
	<ellipse class="st1" cx="16.5" cy="16.5" rx="18.5" ry="18.7"/>
</g>
<g id="Слой_1">
	<path class="st2" d="M31.7,12.6c0-2.6-0.9-4.7-2.4-6.3c0.2-0.6,1-3-0.2-6.2c0,0-1.9-0.6-6.3,2.4c-1.8-0.5-3.8-0.8-5.8-0.8
		c-2,0-3.9,0.3-5.8,0.8c-4.4-3-6.3-2.4-6.3-2.4C3.6,3.3,4.4,5.7,4.6,6.3C3.2,7.9,2.3,10,2.3,12.6c0,9,5.4,11,10.5,11.6
		c-0.7,0.6-1.3,1.6-1.5,3.1c-1.3,0.6-4.7,1.6-6.7-2c0,0-1.2-2.3-3.5-2.4c0,0-2.3,0-0.2,1.4c0,0,1.5,0.7,2.6,3.4c0,0,1.4,4.2,7.8,2.8
		c0,1.7,0,3.3,0,4.1h11.4c0-1,0-3.3,0-6.1c0-2.2-0.7-3.6-1.6-4.3C26.3,23.6,31.7,21.6,31.7,12.6z M2.7,24.2
		c-0.1,0.1-0.2,0.2-0.4,0.1c-0.2-0.1-0.3-0.2-0.2-0.4c0-0.1,0.2-0.2,0.4-0.1C2.7,23.9,2.8,24.1,2.7,24.2z M3.7,25.3
		c-0.1,0.1-0.3,0.1-0.5-0.1C3,25,3,24.8,3.1,24.7c0.1-0.1,0.3-0.1,0.5,0.1C3.7,24.9,3.8,25.1,3.7,25.3z M4.6,26.6
		c-0.1,0.1-0.4,0-0.5-0.2c-0.1-0.2-0.1-0.5,0-0.6c0.1-0.1,0.4,0,0.5,0.2C4.7,26.2,4.7,26.5,4.6,26.6z M5.8,27.9
		c-0.1,0.1-0.4,0.1-0.6-0.1C5,27.6,5,27.4,5.1,27.2c0.1-0.1,0.4-0.1,0.6,0.1C5.9,27.5,5.9,27.8,5.8,27.9z M7.5,28.7
		c-0.1,0.2-0.3,0.3-0.6,0.2c-0.3-0.1-0.4-0.3-0.4-0.5c0.1-0.2,0.3-0.3,0.6-0.2C7.4,28.3,7.6,28.5,7.5,28.7z M8.9,29.2
		c-0.3,0-0.5-0.2-0.5-0.3c0-0.2,0.2-0.4,0.5-0.4c0.3,0,0.5,0.2,0.5,0.3C9.4,29,9.2,29.2,8.9,29.2z M10.7,28.9
		c-0.3,0.1-0.5-0.1-0.5-0.3c0-0.2,0.2-0.4,0.4-0.4c0.3,0,0.5,0.1,0.6,0.3C11.2,28.7,11,28.9,10.7,28.9z"/>
</g>
</svg>
