<?xml version="1.0" encoding="utf-8"?>
<!-- Generator: Adobe Illustrator 23.0.1, SVG Export Plug-In . SVG Version: 6.00 Build 0)  -->
<svg version="1.1" id="Слой_1" xmlns="http://www.w3.org/2000/svg" xmlns:xlink="http://www.w3.org/1999/xlink" x="0px" y="0px"
	 viewBox="0 0 37 37" style="enable-background:new 0 0 37 37;" xml:space="preserve">
<style type="text/css">
	.st0{fill-rule:evenodd;clip-rule:evenodd;fill:#E5E5E5;}
</style>
<path class="st0" d="M10.4,11.8c-3.2,1.7-6.5,3.4-9.5,5.4c-1.6,1.4,0.5,2.4,2.5,3.3C3.7,20.7,4,20.8,4.3,21c0.2,0.1,0.5,0.2,0.7,0.3
	c2.2,0.8,4.6,1.8,6.7,0.4c3.5-2.4,6.7-5.2,10-8c1.1-0.9,2.1-1.8,3.2-2.7c0.1,0,0.1-0.1,0.2-0.1c0.9-0.7,3-2.3,2.2-0.1
	c-1.8,2.4-3.7,4.5-5.7,6.6c-1.3,1.4-2.6,2.9-3.9,4.4c-1.1,1.1-2.3,3.3-1,4.8c2.9,2.4,5.8,4.8,8.7,7.2c1,0.8,1.9,1.5,2.9,2.3
	c1.6,1.6,4.1,0.3,4.5-2.1c0.2-1.1,0.3-2.2,0.5-3.4c0.9-6.2,1.8-12.4,2.5-18.5c0.1-1,0.2-1.9,0.3-2.9c0.3-2.4,0.6-4.7,0.7-7.1
	c-0.2-2.4-2.6-1.8-3.9-1.3c-6.8,3.1-13.5,6.5-20.2,9.9C11.9,11,11.1,11.4,10.4,11.8z"/>
</svg>
