<?xml version="1.0" encoding="utf-8"?>
<!-- Generator: Adobe Illustrator 23.0.1, SVG Export Plug-In . SVG Version: 6.00 Build 0)  -->
<svg version="1.1" id="Слой_1" xmlns="http://www.w3.org/2000/svg" xmlns:xlink="http://www.w3.org/1999/xlink" x="0px" y="0px"
	 viewBox="0 0 37 34.4" style="enable-background:new 0 0 37 34.4;" xml:space="preserve">
<style type="text/css">
	.st0{fill-rule:evenodd;clip-rule:evenodd;fill:#E5E5E5;}
</style>
<path class="st0" d="M0,3c0-1.7,1.3-3,3-3h9.3c1.7,0,3,1.3,3,3v28.4c0,1.7-1.3,3-3,3H3c-1.7,0-3-1.3-3-3V3z"/>
<path class="st0" d="M21.8,3c0-1.7,1.3-3,3-3H34c1.7,0,3,1.3,3,3v15.9c0,1.7-1.3,3-3,3h-9.3c-1.7,0-3-1.3-3-3V3z"/>
</svg>
