<?xml version="1.0" encoding="utf-8"?>
<!-- Generator: Adobe Illustrator 23.0.1, SVG Export Plug-In . SVG Version: 6.00 Build 0)  -->
<svg version="1.1" id="Слой_1" xmlns="http://www.w3.org/2000/svg" xmlns:xlink="http://www.w3.org/1999/xlink" x="0px" y="0px"
	 viewBox="0 0 66.1 37" style="enable-background:new 0 0 66.1 37;" xml:space="preserve">
<style type="text/css">
	.st0{fill:#E5E5E5;}
</style>
<path class="st0" d="M66,2.8c-0.5-1.3-3.5-1-3.5-1l-9.9,0.1c0,0-0.7-0.1-1.3,0.2c-0.5,0.3-0.9,1-0.9,1s-1.6,4.1-3.7,7.6
	c-4.4,7.4-6.2,7.8-6.9,7.3c-1.7-1.1-1.3-4.3-1.3-6.6c0-7.2,1.1-10.1-2.1-10.9c-1.1-0.3-1.9-0.4-4.6-0.5c-3.5,0-6.5,0-8.2,0.8
	c-1.1,0.5-2,1.8-1.5,1.8c0.7,0.1,2.1,0.4,2.9,1.4c1,1.4,1,4.4,1,4.4s0.6,8.4-1.4,9.5c-1.3,0.7-3.2-0.7-7.1-7.4
	c-2-3.4-3.5-7.2-3.5-7.2s-0.3-0.7-0.8-1.1c-0.6-0.5-1.5-0.6-1.5-0.6L2.2,1.8c0,0-1.4,0-1.9,0.6c-0.5,0.5,0,1.7,0,1.7
	s7.4,17,15.8,25.5c7.7,7.8,16.4,7.3,16.4,7.3h4c0,0,1.2-0.1,1.8-0.8c0.6-0.6,0.5-1.7,0.5-1.7s-0.1-5.2,2.4-6c2.4-0.8,5.5,5,8.8,7.3
	c2.5,1.7,4.4,1.3,4.4,1.3l8.8-0.1c0,0,4.6-0.3,2.4-3.8c-0.2-0.3-1.3-2.6-6.6-7.5c-5.5-5-4.8-4.2,1.9-13C64.9,7.4,66.5,4.1,66,2.8z"
	/>
</svg>
