<?xml version="1.0" encoding="utf-8"?>
<!-- Generator: Adobe Illustrator 23.0.1, SVG Export Plug-In . SVG Version: 6.00 Build 0)  -->
<svg version="1.1" id="Слой_1" xmlns="http://www.w3.org/2000/svg" xmlns:xlink="http://www.w3.org/1999/xlink" x="0px" y="0px"
	 viewBox="0 0 48 48" style="enable-background:new 0 0 48 48;" xml:space="preserve">
<style type="text/css">
	.st0{fill-rule:evenodd;clip-rule:evenodd;fill:#B1B1B1;}
</style>
<path class="st0" d="M0,24C0,10.7,10.7,0,24,0s24,10.7,24,24S37.3,48,24,48S0,37.3,0,24z M33.9,10.4h-19c-1.6,0-2.9,1.3-2.9,2.9
	v18.9c0,1.6,1.3,2.9,2.9,2.9H31l-0.8-2.6l1.8,1.7l1.7,1.6l3,2.7V13.3C36.8,11.7,35.5,10.4,33.9,10.4z"/>
<path class="st0" d="M28.4,28.7c0,0-0.5-0.6-0.9-1.1c1.9-0.5,2.6-1.7,2.6-1.7c-0.6,0.4-1.1,0.6-1.6,0.8c-0.7,0.3-1.4,0.5-2.1,0.6
	c-1.4,0.3-2.6,0.2-3.7,0c-0.8-0.2-1.5-0.4-2.1-0.6c-0.3-0.1-0.7-0.3-1-0.5c0,0-0.1,0-0.1-0.1c0,0,0,0-0.1,0C19.1,26,19,25.9,19,25.9
	s0.7,1.1,2.5,1.7c-0.4,0.5-0.9,1.2-0.9,1.2c-3.1-0.1-4.3-2.1-4.3-2.1c0-4.5,2-8.2,2-8.2c2-1.5,4-1.5,4-1.5l0.1,0.2
	c-2.6,0.7-3.7,1.8-3.7,1.8s0.3-0.2,0.8-0.4c1.5-0.7,2.7-0.8,3.2-0.9c0.1,0,0.2,0,0.2,0c0.9-0.1,1.8-0.1,2.9,0
	c1.3,0.2,2.8,0.5,4.3,1.3c0,0-1.1-1.1-3.5-1.8l0.2-0.2c0,0,1.9,0,4,1.5c0,0,2,3.7,2,8.2C32.8,26.6,31.6,28.6,28.4,28.7z M22.2,22.4
	c-0.8,0-1.4,0.7-1.4,1.6s0.6,1.6,1.4,1.6c0.8,0,1.4-0.7,1.4-1.6C23.7,23.1,23,22.4,22.2,22.4z M27.4,22.4c-0.8,0-1.4,0.7-1.4,1.6
	s0.6,1.6,1.4,1.6c0.8,0,1.4-0.7,1.4-1.6S28.2,22.4,27.4,22.4z"/>
</svg>
