<?xml version="1.0" encoding="utf-8"?>
<!-- Generator: Adobe Illustrator 23.0.1, SVG Export Plug-In . SVG Version: 6.00 Build 0)  -->
<svg version="1.1" xmlns="http://www.w3.org/2000/svg" xmlns:xlink="http://www.w3.org/1999/xlink" x="0px" y="0px"
	 viewBox="0 0 48 48" style="enable-background:new 0 0 48 48;" xml:space="preserve">
<style type="text/css">
	.st0{display:none;}
	.st1{display:inline;stroke:#000000;stroke-miterlimit:10;}
	.st2{fill-rule:evenodd;clip-rule:evenodd;fill:#B1B1B1;}
</style>
<g id="Слой_2" class="st0">
	<rect x="-1.3" class="st1" width="50.6" height="50.6"/>
</g>
<g id="Слой_1">
	<path class="st2" d="M1,31c3,9.8,12.2,17,23,17c13.3,0,24-10.7,24-24C48,10.7,37.2,0,24,0C11.2,0,0.8,9.9,0,22.4c0,0,0,0,0,0
		c0,0,0-0.1,0-0.1l12.8,5.3c0.3-0.2,0.7-0.4,1.1-0.6c0.9-0.4,1.9-0.5,2.8-0.5l5.8-8.6c0,0,0-0.1,0-0.1c0-5,4.1-9.2,9.1-9.2
		c5,0,9.1,4.1,9.1,9.2c0,5-4.1,9.2-9.1,9.2c-0.1,0-0.1,0-0.2,0l-8.4,6c0,0.9-0.1,1.9-0.5,2.8c-1.4,3.4-5.3,5-8.7,3.6
		c-2.1-0.9-3.5-2.7-3.9-4.7L1,31z"/>
	<path class="st2" d="M21.2,35.3c-1.1,2.6-4.1,3.9-6.7,2.8c-1.2-0.5-2.1-1.4-2.6-2.5l3,1.2c1.9,0.8,4.1-0.1,4.9-2
		c0.8-1.9-0.1-4.2-2-5l-3.1-1.3c1.2-0.5,2.5-0.5,3.8,0.1c1.3,0.5,2.2,1.5,2.8,2.8C21.8,32.6,21.8,34,21.2,35.3z"/>
	<path class="st2" d="M31.7,24.1c-3.3,0-6-2.7-6-6.1c0-3.4,2.7-6.1,6-6.1c3.3,0,6.1,2.7,6.1,6.1C37.8,21.3,35.1,24.1,31.7,24.1z
		 M27.2,17.9c0,2.5,2,4.6,4.5,4.6c2.5,0,4.5-2.1,4.5-4.6c0-2.5-2-4.6-4.5-4.6C29.2,13.4,27.2,15.4,27.2,17.9z"/>
</g>
</svg>
