<?xml version="1.0" encoding="utf-8"?>
<!-- Generator: Adobe Illustrator 23.0.1, SVG Export Plug-In . SVG Version: 6.00 Build 0)  -->
<svg version="1.1" id="Слой_1" xmlns="http://www.w3.org/2000/svg" xmlns:xlink="http://www.w3.org/1999/xlink" x="0px" y="0px"
	 viewBox="0 0 48 48" style="enable-background:new 0 0 48 48;" xml:space="preserve">
<style type="text/css">
	.st0{fill-rule:evenodd;clip-rule:evenodd;fill:#B1B1B1;}
</style>
<path class="st0" d="M48,24c0,13.3-10.7,24-24,24S0,37.3,0,24S10.7,0,24,0S48,10.7,48,24z M16.1,21.8c-2.4,1-4.9,2.1-7.1,3.4
	c-1.2,0.9,0.4,1.5,1.9,2c0.2,0.1,0.5,0.2,0.7,0.3c0.2,0.1,0.4,0.1,0.6,0.2c1.6,0.5,3.5,1.1,5,0.2c2.6-1.5,5.1-3.2,7.5-5
	c0.8-0.6,1.6-1.1,2.4-1.7c0,0,0.1-0.1,0.1-0.1c0.7-0.4,2.2-1.5,1.7-0.1c-1.4,1.5-2.8,2.8-4.3,4.1c-1,0.9-2,1.8-2.9,2.7
	c-0.8,0.7-1.7,2.1-0.8,3c2.2,1.5,4.4,3,6.6,4.5c0.7,0.5,1.4,1,2.1,1.4c1.2,1,3.1,0.2,3.4-1.3c0.1-0.7,0.2-1.4,0.4-2.1
	c0.7-3.8,1.3-7.7,1.9-11.5c0.1-0.6,0.2-1.2,0.3-1.8c0.2-1.5,0.4-2.9,0.5-4.4c-0.2-1.5-2-1.1-3-0.8c-5.1,1.9-10.2,4-15.2,6.2
	C17.2,21.3,16.7,21.5,16.1,21.8z"/>
</svg>
