<?xml version="1.0" encoding="utf-8"?>
<!-- Generator: Adobe Illustrator 23.0.1, SVG Export Plug-In . SVG Version: 6.00 Build 0)  -->
<svg version="1.1" id="Слой_1" xmlns="http://www.w3.org/2000/svg" xmlns:xlink="http://www.w3.org/1999/xlink" x="0px" y="0px"
	 viewBox="0 0 48 48" style="enable-background:new 0 0 48 48;" xml:space="preserve">
<style type="text/css">
	.st0{fill-rule:evenodd;clip-rule:evenodd;fill:#B1B1B1;}
</style>
<path class="st0" d="M0,24C0,10.7,10.7,0,24,0s24,10.7,24,24S37.3,48,24,48S0,37.3,0,24z M25.3,31.9c0,0,0.5-0.1,0.7-0.3
	c0.2-0.2,0.2-0.7,0.2-0.7s0-2,0.9-2.3c0.9-0.3,2.1,1.9,3.4,2.8c1,0.7,1.7,0.5,1.7,0.5l3.4,0c0,0,1.8-0.1,0.9-1.5
	c-0.1-0.1-0.5-1-2.5-2.9c-2.1-2-1.9-1.6,0.7-5c1.6-2.1,2.2-3.3,2-3.9c-0.2-0.5-1.3-0.4-1.3-0.4l-3.8,0c0,0-0.3,0-0.5,0.1
	c-0.2,0.1-0.3,0.4-0.3,0.4s-0.6,1.6-1.4,2.9c-1.7,2.9-2.4,3-2.7,2.8c-0.7-0.4-0.5-1.7-0.5-2.5c0-2.8,0.4-3.9-0.8-4.2
	c-0.4-0.1-0.7-0.2-1.8-0.2c-1.4,0-2.5,0-3.2,0.3c-0.4,0.2-0.8,0.7-0.6,0.7c0.3,0,0.8,0.2,1.1,0.6c0.4,0.5,0.4,1.7,0.4,1.7
	s0.2,3.3-0.5,3.7c-0.5,0.3-1.2-0.3-2.8-2.9c-0.8-1.3-1.4-2.8-1.4-2.8s-0.1-0.3-0.3-0.4c-0.2-0.2-0.6-0.2-0.6-0.2l-3.7,0
	c0,0-0.5,0-0.8,0.2c-0.2,0.2,0,0.6,0,0.6s2.9,6.6,6.1,9.9c3,3,6.3,2.8,6.3,2.8H25.3z"/>
</svg>
